# xmcd
#
# Track frame offsets: 
#        150
#        19479
#        30301
#        52703
#        63337
#        84226
#        97316
#        111909
#        130367
#        141601
#        151330
#        162842
#        174458
#        184547
#        192908
#        205929
#        217847
#        229856
#        239053
#        259972
#
# Disc length: 3658 seconds
#
# Revision: 0
# Processed by: cddbd v1.5.2PL0 Copyright (c) Steve Scherf et al.
# Submitted via: ExactAudioCopy v0.95b4
#
DISCID=1c0e4814
DTITLE=Various Artist - De Top Collectie 60's [CD2)
DYEAR=2010
DGENRE=Oldies
TTITLE0=Elvis Presley - Suspicious Minds
TTITLE1=Francoise Hardy - Comment Te Dire Adieu
TTITLE2=The Wallace Collection - Daydream
TTITLE3=Edith Piaf - Non, Je Ne Regrette Rien
TTITLE4=Peter Sarstedt - Where Do You Go To (My Lovely)
TTITLE5=The Hollies - Bus Stop
TTITLE6=Will Ferdy - Christine
TTITLE7=Gilbert Becaud - Nathalie
TTITLE8=Andy Williams - Music To Watch Girls By
TTITLE9=Paul Anka - A Steel Guitar And A Glass Of Wine
TTITLE10=Billy Joe Royal - Down In The Boondocks
TTITLE11=Jimmy Frey - Zo Mooi, Zo Blond En Zo Alleen
TTITLE12=The Marcels - Blue Moon
TTITLE13=The Ventures - Hawaii Five-O
TTITLE14=The Love Affair - Everlasting Love
TTITLE15=Gerry and The Pacemakers - You'll Never Walk Alone
TTITLE16=Peter and Gordon - A World Without Love
TTITLE17=Billy J. Kramer and The Dakotas - Do You Want To Know A Secret
TTITLE18=Keith West - Excerpt From A Teenage Opera
TTITLE19=Aphrodite's Child - Rain And Tears
EXTD=
EXTT0=
EXTT1=
EXTT2=
EXTT3=
EXTT4=
EXTT5=
EXTT6=
EXTT7=
EXTT8=
EXTT9=
EXTT10=
EXTT11=
EXTT12=
EXTT13=
EXTT14=
EXTT15=
EXTT16=
EXTT17=
EXTT18=
EXTT19=
PLAYORDER=
